<svg width="192" height="85" viewBox="0 0 192 85" fill="none" xmlns="http://www.w3.org/2000/svg">
<g opacity="0.2">
<path d="M26.1802 32.9429C27.9221 32.1232 29.4591 30.9961 30.7911 29.5103L37.6051 31.7646C36.683 33.1479 35.6071 34.4287 34.3262 35.5558C33.0966 36.683 31.7646 37.6564 30.2788 38.4761C28.8443 39.2958 27.3073 39.9106 25.6166 40.3205C23.9771 40.7816 22.2864 40.9865 20.4933 40.9865C14.8064 40.9865 10.0417 38.9372 6.04552 34.941C2.04933 30.9448 0 26.1802 0 20.4933C0 14.8576 1.99809 10.0417 6.04552 6.04551C9.99047 1.99809 14.8064 0 20.4933 0C23.3111 0 25.9752 0.512331 28.4856 1.58823C30.9448 2.66412 33.1479 4.14989 35.0435 6.04551L30.1251 10.8614C27.461 8.19731 24.2845 6.86525 20.4933 6.86525C16.7532 6.86525 13.5256 8.14607 10.8102 10.8614C8.14607 13.5256 6.86525 16.7532 6.86525 20.4933C6.86525 24.2333 8.14607 27.5122 10.8102 30.1763C13.4743 32.8405 16.7532 34.1213 20.4933 34.1213C22.5426 34.1213 24.4382 33.7114 26.1802 32.9429ZM20.4933 23.9259V17.1119H37.6051L30.7911 23.9259H20.4933Z" fill="#6B7280"/>
<path d="M60.7624 23.9259H50.567C47.2368 23.9259 44.419 22.7475 42.1135 20.442C39.808 18.0853 38.6296 15.2675 38.6296 11.9373C38.6296 8.65841 39.808 5.89181 42.1135 3.53509C44.419 1.17836 47.2368 0 50.567 0V6.86525C49.8497 6.86525 49.1837 6.96771 48.5689 7.22388C47.9028 7.48004 47.3905 7.83868 46.8782 8.35101C46.4171 8.81211 46.0585 9.37567 45.8023 9.99047C45.5461 10.6053 45.4437 11.2713 45.4437 11.9373C45.4437 13.3719 45.9048 14.5502 46.8782 15.5749C47.9028 16.5996 49.0812 17.1119 50.567 17.1119H60.7624C64.0925 17.1119 66.9104 18.2902 69.2158 20.5957C71.5726 22.9525 72.7509 25.7703 72.7509 29.0492C72.7509 32.3281 71.5726 35.146 69.2158 37.5027C66.9104 39.8082 64.0925 40.9865 60.7624 40.9865V34.1213C61.4796 34.1213 62.1457 34.0188 62.7605 33.7627C63.4265 33.5065 63.9901 33.1479 64.4512 32.6868C64.9123 32.2257 65.2709 31.7133 65.5271 31.0473C65.7832 30.4325 65.9369 29.7665 65.9369 29.0492C65.9369 27.6659 65.3734 26.4876 64.3999 25.4629C63.3753 24.4382 62.1969 23.9259 60.7624 23.9259Z" fill="#6B7280"/>
<path d="M89.9405 26.0777V26.0265L78.3105 40.9865H69.5497L85.6369 20.4933L69.5497 0H78.3105L89.9405 14.9601L101.622 0H110.28L89.9405 26.0777ZM89.9405 26.0265V26.0777L78.3105 40.9865L89.9405 26.0265Z" fill="#6B7280"/>
<path d="M142.285 0H149.099V40.9865L115.029 10.3491V0L142.285 24.5407V0Z" fill="#6B7280"/>
<path d="M169.56 39.3471C167.049 38.2712 164.897 36.7854 163.002 34.941C161.157 33.0454 159.672 30.8936 158.596 28.3832C157.52 25.8728 156.956 23.2599 156.956 20.4933C156.956 17.6754 157.52 15.0113 158.596 12.5009C159.672 10.0417 161.157 7.88991 163.002 6.04551C164.897 4.14989 167.049 2.71536 169.56 1.63946C172.019 0.563564 174.683 0 177.501 0C180.319 0 182.983 0.512331 185.442 1.58823C187.901 2.66412 190.104 4.14989 192 6.04551L187.133 10.8102C184.417 8.14607 181.19 6.86525 177.501 6.86525C175.605 6.86525 173.812 7.22388 172.173 7.88991C170.482 8.60717 169.047 9.5806 167.818 10.8614C166.588 12.091 165.615 13.5256 164.897 15.165C164.18 16.8557 163.822 18.5976 163.822 20.4933C163.822 22.3889 164.18 24.1308 164.897 25.8215C165.615 27.461 166.588 28.8955 167.869 30.1251C169.099 31.4059 170.533 32.3794 172.173 33.0966C173.863 33.7627 175.605 34.1213 177.501 34.1213L185.442 39.3983C182.983 40.4742 180.319 40.9865 177.501 40.9865C174.683 40.9865 172.019 40.423 169.56 39.3471Z" fill="#6B7280"/>
</g>
<path d="M52.8864 76.9863H51.4091L55.6818 65.35H57.1364L61.4091 76.9863H59.9318L56.4545 67.1909H56.3636L52.8864 76.9863ZM53.4318 72.4409H59.3864V73.6909H53.4318V72.4409ZM64.6307 65.35V76.9863H63.2216V65.35H64.6307ZM72.4332 76.9863H70.956L75.2287 65.35H76.6832L80.956 76.9863H79.4787L76.0014 67.1909H75.9105L72.4332 76.9863ZM72.9787 72.4409H78.9332V73.6909H72.9787V72.4409ZM88.7685 70.2136L87.5639 70.5545C87.4882 70.3538 87.3764 70.1587 87.2287 69.9693C87.0848 69.7761 86.8878 69.617 86.6378 69.492C86.3878 69.367 86.0677 69.3045 85.6776 69.3045C85.1435 69.3045 84.6984 69.4276 84.3423 69.6738C83.9901 69.9163 83.8139 70.225 83.8139 70.6C83.8139 70.9333 83.9351 71.1966 84.1776 71.3897C84.42 71.5829 84.7988 71.7439 85.3139 71.8727L86.6094 72.1909C87.3897 72.3803 87.9711 72.67 88.3537 73.0602C88.7363 73.4466 88.9276 73.9447 88.9276 74.5545C88.9276 75.0545 88.7836 75.5015 88.4957 75.8954C88.2116 76.2894 87.8139 76.6 87.3026 76.8272C86.7912 77.0545 86.1965 77.1681 85.5185 77.1681C84.6283 77.1681 83.8916 76.975 83.3082 76.5886C82.7249 76.2022 82.3556 75.6378 82.2003 74.8954L83.473 74.5772C83.5942 75.0469 83.8234 75.3992 84.1605 75.6341C84.5014 75.8689 84.9465 75.9863 85.4957 75.9863C86.1207 75.9863 86.617 75.8538 86.9844 75.5886C87.3556 75.3197 87.5412 74.9977 87.5412 74.6227C87.5412 74.3197 87.4351 74.0659 87.223 73.8613C87.0109 73.653 86.6851 73.4977 86.2457 73.3954L84.7912 73.0545C83.992 72.8651 83.4048 72.5716 83.0298 72.1738C82.6586 71.7723 82.473 71.2704 82.473 70.6681C82.473 70.1757 82.6113 69.7401 82.8878 69.3613C83.1681 68.9825 83.5488 68.6852 84.0298 68.4693C84.5147 68.2534 85.0639 68.1454 85.6776 68.1454C86.5412 68.1454 87.2192 68.3348 87.7116 68.7136C88.2079 69.0924 88.5601 69.5924 88.7685 70.2136ZM97.1278 70.2136L95.9233 70.5545C95.8475 70.3538 95.7358 70.1587 95.5881 69.9693C95.4441 69.7761 95.2472 69.617 94.9972 69.492C94.7472 69.367 94.4271 69.3045 94.0369 69.3045C93.5028 69.3045 93.0578 69.4276 92.7017 69.6738C92.3494 69.9163 92.1733 70.225 92.1733 70.6C92.1733 70.9333 92.2945 71.1966 92.5369 71.3897C92.7794 71.5829 93.1581 71.7439 93.6733 71.8727L94.9688 72.1909C95.7491 72.3803 96.3305 72.67 96.7131 73.0602C97.0956 73.4466 97.2869 73.9447 97.2869 74.5545C97.2869 75.0545 97.143 75.5015 96.8551 75.8954C96.571 76.2894 96.1733 76.6 95.6619 76.8272C95.1506 77.0545 94.5559 77.1681 93.8778 77.1681C92.9877 77.1681 92.2509 76.975 91.6676 76.5886C91.0843 76.2022 90.715 75.6378 90.5597 74.8954L91.8324 74.5772C91.9536 75.0469 92.1828 75.3992 92.5199 75.6341C92.8608 75.8689 93.3059 75.9863 93.8551 75.9863C94.4801 75.9863 94.9763 75.8538 95.3438 75.5886C95.715 75.3197 95.9006 74.9977 95.9006 74.6227C95.9006 74.3197 95.7945 74.0659 95.5824 73.8613C95.3703 73.653 95.0445 73.4977 94.6051 73.3954L93.1506 73.0545C92.3513 72.8651 91.7642 72.5716 91.3892 72.1738C91.018 71.7723 90.8324 71.2704 90.8324 70.6681C90.8324 70.1757 90.9706 69.7401 91.2472 69.3613C91.5275 68.9825 91.9081 68.6852 92.3892 68.4693C92.8741 68.2534 93.4233 68.1454 94.0369 68.1454C94.9006 68.1454 95.5786 68.3348 96.071 68.7136C96.5672 69.0924 96.9195 69.5924 97.1278 70.2136ZM99.3054 76.9863V68.2591H100.646V76.9863H99.3054ZM99.9872 66.8045C99.7259 66.8045 99.5005 66.7155 99.3111 66.5375C99.1255 66.3594 99.0327 66.1454 99.0327 65.8954C99.0327 65.6454 99.1255 65.4314 99.3111 65.2534C99.5005 65.0753 99.7259 64.9863 99.9872 64.9863C100.249 64.9863 100.472 65.0753 100.658 65.2534C100.847 65.4314 100.942 65.6454 100.942 65.8954C100.942 66.1454 100.847 66.3594 100.658 66.5375C100.472 66.7155 100.249 66.8045 99.9872 66.8045ZM109.284 70.2136L108.08 70.5545C108.004 70.3538 107.892 70.1587 107.744 69.9693C107.6 69.7761 107.403 69.617 107.153 69.492C106.903 69.367 106.583 69.3045 106.193 69.3045C105.659 69.3045 105.214 69.4276 104.858 69.6738C104.506 69.9163 104.33 70.225 104.33 70.6C104.33 70.9333 104.451 71.1966 104.693 71.3897C104.936 71.5829 105.314 71.7439 105.83 71.8727L107.125 72.1909C107.905 72.3803 108.487 72.67 108.869 73.0602C109.252 73.4466 109.443 73.9447 109.443 74.5545C109.443 75.0545 109.299 75.5015 109.011 75.8954C108.727 76.2894 108.33 76.6 107.818 76.8272C107.307 77.0545 106.712 77.1681 106.034 77.1681C105.144 77.1681 104.407 76.975 103.824 76.5886C103.241 76.2022 102.871 75.6378 102.716 74.8954L103.989 74.5772C104.11 75.0469 104.339 75.3992 104.676 75.6341C105.017 75.8689 105.462 75.9863 106.011 75.9863C106.636 75.9863 107.133 75.8538 107.5 75.5886C107.871 75.3197 108.057 74.9977 108.057 74.6227C108.057 74.3197 107.951 74.0659 107.739 73.8613C107.527 73.653 107.201 73.4977 106.761 73.3954L105.307 73.0545C104.508 72.8651 103.92 72.5716 103.545 72.1738C103.174 71.7723 102.989 71.2704 102.989 70.6681C102.989 70.1757 103.127 69.7401 103.403 69.3613C103.684 68.9825 104.064 68.6852 104.545 68.4693C105.03 68.2534 105.58 68.1454 106.193 68.1454C107.057 68.1454 107.735 68.3348 108.227 68.7136C108.723 69.0924 109.076 69.5924 109.284 70.2136ZM115.257 68.2591V69.3954H110.734V68.2591H115.257ZM112.053 66.1681H113.393V74.4863C113.393 74.8651 113.448 75.1492 113.558 75.3386C113.672 75.5242 113.816 75.6492 113.99 75.7136C114.168 75.7742 114.356 75.8045 114.553 75.8045C114.7 75.8045 114.821 75.7969 114.916 75.7818C115.011 75.7628 115.087 75.7477 115.143 75.7363L115.416 76.9409C115.325 76.975 115.198 77.0091 115.036 77.0431C114.873 77.081 114.666 77.1 114.416 77.1C114.037 77.1 113.666 77.0185 113.303 76.8556C112.943 76.6928 112.643 76.4447 112.405 76.1113C112.17 75.778 112.053 75.3575 112.053 74.85V66.1681ZM119.842 77.1909C119.289 77.1909 118.787 77.0867 118.337 76.8784C117.886 76.6663 117.528 76.3613 117.263 75.9636C116.998 75.5621 116.865 75.0772 116.865 74.5091C116.865 74.0091 116.964 73.6038 117.161 73.2931C117.357 72.9788 117.621 72.7325 117.95 72.5545C118.28 72.3765 118.643 72.2439 119.041 72.1568C119.443 72.0659 119.846 71.9939 120.251 71.9409C120.782 71.8727 121.212 71.8216 121.541 71.7875C121.875 71.7496 122.117 71.6871 122.268 71.6C122.424 71.5128 122.501 71.3613 122.501 71.1454V71.1C122.501 70.5394 122.348 70.1038 122.041 69.7931C121.738 69.4825 121.278 69.3272 120.661 69.3272C120.02 69.3272 119.518 69.4674 119.155 69.7477C118.791 70.028 118.536 70.3272 118.388 70.6454L117.115 70.1909C117.342 69.6606 117.645 69.2477 118.024 68.9522C118.407 68.653 118.823 68.4447 119.274 68.3272C119.729 68.206 120.176 68.1454 120.615 68.1454C120.895 68.1454 121.217 68.1795 121.581 68.2477C121.948 68.3121 122.303 68.4466 122.643 68.6511C122.988 68.8556 123.274 69.1644 123.501 69.5772C123.729 69.9901 123.842 70.5431 123.842 71.2363V76.9863H122.501V75.8045H122.433C122.342 75.9939 122.191 76.1966 121.979 76.4125C121.767 76.6284 121.484 76.8121 121.132 76.9636C120.78 77.1151 120.35 77.1909 119.842 77.1909ZM120.047 75.9863C120.577 75.9863 121.024 75.8822 121.388 75.6738C121.755 75.4655 122.032 75.1966 122.217 74.867C122.407 74.5375 122.501 74.1909 122.501 73.8272V72.6C122.445 72.6681 122.32 72.7306 122.126 72.7875C121.937 72.8405 121.717 72.8878 121.467 72.9295C121.221 72.9674 120.981 73.0015 120.746 73.0318C120.515 73.0583 120.327 73.081 120.183 73.1C119.835 73.1454 119.509 73.2193 119.206 73.3216C118.907 73.42 118.664 73.5697 118.479 73.7704C118.297 73.9674 118.206 74.2363 118.206 74.5772C118.206 75.0431 118.378 75.3954 118.723 75.6341C119.071 75.8689 119.513 75.9863 120.047 75.9863ZM127.631 71.7363V76.9863H126.29V68.2591H127.585V69.6227H127.699C127.903 69.1795 128.214 68.8234 128.631 68.5545C129.047 68.2818 129.585 68.1454 130.244 68.1454C130.835 68.1454 131.352 68.2666 131.795 68.5091C132.239 68.7477 132.583 69.1113 132.83 69.6C133.076 70.0848 133.199 70.6984 133.199 71.4409V76.9863H131.858V71.5318C131.858 70.8462 131.68 70.3121 131.324 69.9295C130.968 69.5431 130.479 69.35 129.858 69.35C129.43 69.35 129.047 69.4428 128.71 69.6284C128.377 69.814 128.114 70.0848 127.92 70.4409C127.727 70.7969 127.631 71.2288 127.631 71.7363ZM139.445 68.2591V69.3954H134.922V68.2591H139.445ZM136.24 66.1681H137.581V74.4863C137.581 74.8651 137.636 75.1492 137.746 75.3386C137.859 75.5242 138.003 75.6492 138.178 75.7136C138.356 75.7742 138.543 75.8045 138.74 75.8045C138.888 75.8045 139.009 75.7969 139.104 75.7818C139.198 75.7628 139.274 75.7477 139.331 75.7363L139.604 76.9409C139.513 76.975 139.386 77.0091 139.223 77.0431C139.06 77.081 138.854 77.1 138.604 77.1C138.225 77.1 137.854 77.0185 137.49 76.8556C137.13 76.6928 136.831 76.4447 136.592 76.1113C136.357 75.778 136.24 75.3575 136.24 74.85V66.1681Z" fill="#6B7280"/>
</svg>
